<svg xmlns="http://www.w3.org/2000/svg" xmlns:xlink="http://www.w3.org/1999/xlink" width="520" height="425" viewBox="0 0 520 425"><rect width="100%" height="100%" fill="#DDDDDD"/><path d="M115.27 194.79L113.46 205.47Q115.16 205.12 116.72 204.96Q118.28 204.80 119.74 204.80L119.74 204.80Q123.79 204.80 126.88 206.00Q129.96 207.21 132.06 209.34Q134.15 211.47 135.22 214.33Q136.28 217.19 136.28 220.49L136.28 220.49Q136.28 224.57 134.84 227.94Q133.41 231.32 130.85 233.71Q128.29 236.11 124.80 237.42Q121.30 238.73 117.18 238.73L117.18 238.73Q114.77 238.73 112.60 238.24Q110.44 237.74 108.54 236.91Q106.64 236.07 105.02 234.99Q103.41 233.91 102.13 232.70L102.13 232.70L104.83 228.97Q105.68 227.77 107.07 227.77L107.07 227.77Q107.95 227.77 108.88 228.33Q109.80 228.90 110.99 229.58Q112.18 230.25 113.79 230.82Q115.41 231.39 117.68 231.39L117.68 231.39Q120.09 231.39 121.94 230.61Q123.79 229.82 125.01 228.42Q126.24 227.02 126.86 225.08Q127.48 223.15 127.48 220.88L127.48 220.88Q127.48 216.69 125.05 214.33Q122.61 211.97 117.86 211.97L117.86 211.97Q114.20 211.97 110.37 213.32L110.37 213.32L104.90 211.75L109.16 186.83L134.51 186.83L134.51 190.56Q134.51 192.44 133.34 193.61Q132.16 194.79 129.36 194.79L129.36 194.79L115.27 194.79ZM161.88 230.00L175.05 230.00Q176.47 230.00 177.30 230.80Q178.14 231.60 178.14 232.91L178.14 232.91L178.14 238.17L142.92 238.17L142.92 235.26Q142.92 234.37 143.29 233.39Q143.67 232.42 144.48 231.63L144.48 231.63L160.07 216.01Q162.02 214.03 163.56 212.22Q165.11 210.41 166.14 208.63Q167.17 206.86 167.72 205.03Q168.27 203.20 168.27 201.18L168.27 201.18Q168.27 199.33 167.74 197.93Q167.20 196.53 166.23 195.57Q165.25 194.61 163.88 194.13Q162.52 193.65 160.81 193.65L160.81 193.65Q159.25 193.65 157.92 194.09Q156.59 194.54 155.56 195.34Q154.53 196.13 153.82 197.20Q153.11 198.26 152.75 199.54L152.75 199.54Q152.15 201.18 151.19 201.71Q150.23 202.24 148.42 201.96L148.42 201.96L143.81 201.14Q144.34 197.45 145.87 194.66Q147.39 191.87 149.68 190.01Q151.97 188.15 154.94 187.21Q157.90 186.27 161.31 186.27L161.31 186.27Q164.86 186.27 167.81 187.31Q170.75 188.36 172.85 190.28Q174.94 192.19 176.11 194.89Q177.29 197.59 177.29 200.89L177.29 200.89Q177.29 203.73 176.45 206.15Q175.62 208.56 174.21 210.76Q172.81 212.96 170.93 215.02Q169.05 217.08 166.99 219.21L166.99 219.21L155.42 231.03Q157.09 230.53 158.74 230.27Q160.39 230.00 161.88 230.00L161.88 230.00ZM220.81 212.50L220.81 212.50Q220.81 219.21 219.37 224.16Q217.93 229.11 215.39 232.34Q212.86 235.58 209.39 237.15Q205.93 238.73 201.92 238.73L201.92 238.73Q197.91 238.73 194.48 237.15Q191.06 235.58 188.54 232.34Q186.02 229.11 184.60 224.16Q183.18 219.21 183.18 212.50L183.18 212.50Q183.18 205.75 184.60 200.82Q186.02 195.89 188.54 192.66Q191.06 189.43 194.48 187.85Q197.91 186.27 201.92 186.27L201.92 186.27Q205.93 186.27 209.39 187.85Q212.86 189.43 215.39 192.66Q217.93 195.89 219.37 200.82Q220.81 205.75 220.81 212.50ZM211.76 212.50L211.76 212.50Q211.76 206.93 210.94 203.27Q210.12 199.61 208.76 197.45Q207.39 195.28 205.61 194.41Q203.84 193.54 201.92 193.54L201.92 193.54Q200.04 193.54 198.28 194.41Q196.53 195.28 195.18 197.45Q193.83 199.61 193.03 203.27Q192.23 206.93 192.23 212.50L192.23 212.50Q192.23 218.07 193.03 221.73Q193.83 225.39 195.18 227.55Q196.53 229.72 198.28 230.59Q200.04 231.46 201.92 231.46L201.92 231.46Q203.84 231.46 205.61 230.59Q207.39 229.72 208.76 227.55Q210.12 225.39 210.94 221.73Q211.76 218.07 211.76 212.50ZM277.18 226.42L272.53 231.00L260.50 218.96L248.36 231.07L243.71 226.49L255.85 214.31L244.27 202.74L248.89 198.12L260.46 209.70L271.96 198.19L276.65 202.81L265.11 214.35L277.18 226.42ZM307.93 218.82L323.55 218.82L323.55 202.03Q323.55 199.65 323.86 196.77L323.86 196.77L307.93 218.82ZM331.18 218.82L337.64 218.82L337.64 223.90Q337.64 224.61 337.18 225.12Q336.72 225.64 335.86 225.64L335.86 225.64L331.18 225.64L331.18 238.17L323.55 238.17L323.55 225.64L301.89 225.64Q301.00 225.64 300.33 225.08Q299.65 224.53 299.48 223.72L299.48 223.72L298.55 219.28L322.87 186.80L331.18 186.80L331.18 218.82ZM361.10 230.00L374.27 230.00Q375.69 230.00 376.53 230.80Q377.36 231.60 377.36 232.91L377.36 232.91L377.36 238.17L342.15 238.17L342.15 235.26Q342.15 234.37 342.52 233.39Q342.89 232.42 343.71 231.63L343.71 231.63L359.29 216.01Q361.25 214.03 362.79 212.22Q364.33 210.41 365.36 208.63Q366.39 206.86 366.94 205.03Q367.49 203.20 367.49 201.18L367.49 201.18Q367.49 199.33 366.96 197.93Q366.43 196.53 365.45 195.57Q364.48 194.61 363.11 194.13Q361.74 193.65 360.04 193.65L360.04 193.65Q358.48 193.65 357.15 194.09Q355.81 194.54 354.79 195.34Q353.76 196.13 353.05 197.20Q352.34 198.26 351.98 199.54L351.98 199.54Q351.38 201.18 350.42 201.71Q349.46 202.24 347.65 201.96L347.65 201.96L343.03 201.14Q343.57 197.45 345.09 194.66Q346.62 191.87 348.91 190.01Q351.20 188.15 354.16 187.21Q357.13 186.27 360.54 186.27L360.54 186.27Q364.09 186.27 367.03 187.31Q369.98 188.36 372.07 190.28Q374.17 192.19 375.34 194.89Q376.51 197.59 376.51 200.89L376.51 200.89Q376.51 203.73 375.68 206.15Q374.84 208.56 373.44 210.76Q372.04 212.96 370.16 215.02Q368.28 217.08 366.22 219.21L366.22 219.21L354.64 231.03Q356.31 230.53 357.96 230.27Q359.61 230.00 361.10 230.00L361.10 230.00ZM396.85 194.79L395.04 205.47Q396.75 205.12 398.31 204.96Q399.87 204.80 401.33 204.80L401.33 204.80Q405.37 204.80 408.46 206.00Q411.55 207.21 413.64 209.34Q415.74 211.47 416.80 214.33Q417.87 217.19 417.87 220.49L417.87 220.49Q417.87 224.57 416.43 227.94Q414.99 231.32 412.44 233.71Q409.88 236.11 406.38 237.42Q402.89 238.73 398.77 238.73L398.77 238.73Q396.36 238.73 394.19 238.24Q392.02 237.74 390.13 236.91Q388.23 236.07 386.61 234.99Q385.00 233.91 383.72 232.70L383.72 232.70L386.42 228.97Q387.27 227.77 388.65 227.77L388.65 227.77Q389.54 227.77 390.46 228.33Q391.39 228.90 392.57 229.58Q393.76 230.25 395.38 230.82Q396.99 231.39 399.27 231.39L399.27 231.39Q401.68 231.39 403.53 230.61Q405.37 229.82 406.60 228.42Q407.82 227.02 408.44 225.08Q409.06 223.15 409.06 220.88L409.06 220.88Q409.06 216.69 406.63 214.33Q404.20 211.97 399.44 211.97L399.44 211.97Q395.79 211.97 391.95 213.32L391.95 213.32L386.49 211.75L390.75 186.83L416.09 186.83L416.09 190.56Q416.09 192.44 414.92 193.61Q413.75 194.79 410.95 194.79L410.95 194.79L396.85 194.79Z" fill="#999999"/></svg>